<?xml version="1.0" encoding="utf-8"?>
<!-- Generator: Adobe Illustrator 22.0.0, SVG Export Plug-In . SVG Version: 6.00 Build 0)  -->
<svg version="1.1" id="Capa_1" xmlns="http://www.w3.org/2000/svg" xmlns:xlink="http://www.w3.org/1999/xlink" x="0px" y="0px"
	 viewBox="0 0 488 488" style="enable-background:new 0 0 488 488;" xml:space="preserve">
<style type="text/css">
	.st0{fill:#FFBC00;}
</style>
<g>
	<polygon class="st0" points="244,40 170,173 20,193 132,299 105,454 244,391 375,449 360,312 467,197 314,164 	"/>
	<path d="M471.6,173.8L326.1,153L261.7,21c-8-15.4-30-12.2-35.3,0L162,153L16.4,173.8C0,174.8-5.2,194.7,6,207l105,102.9L86,454.4
		c-2.9,17.8,16.7,27.8,28.1,20.8L244,406.6l129.9,67.6c13.6,7,29.8-2.8,28.1-19.7l-25-144.6L482,207
		C494.7,193.5,485.6,175.5,471.6,173.8z M342.7,288.1c-4.2,5.2-6.2,11.4-5.2,17.7l19.7,116.4l-103.9-55.1c-6.7-2.8-13-2.8-18.7,0
		l-103.9,55.1l19.7-116.4c1-7.3-1-13.5-5.2-17.7L61.1,206l116.4-16.6c6.2-1,11.4-4.2,14.6-10.4l52-105l52,105
		c3.1,5.2,8.3,9.4,14.6,10.4L426.9,206L342.7,288.1z"/>
</g>
</svg>
